<?xml version="1.0" encoding="UTF-8"?>
<!DOCTYPE svg PUBLIC "-//W3C//DTD SVG 1.1//EN" "http://www.w3.org/Graphics/SVG/1.1/DTD/svg11.dtd">
<svg xmlns="http://www.w3.org/2000/svg" version="1.1" width="512px" height="512px" style="shape-rendering:geometricPrecision; text-rendering:geometricPrecision; image-rendering:optimizeQuality; fill-rule:evenodd; clip-rule:evenodd" xmlns:xlink="http://www.w3.org/1999/xlink">
<g><path style="opacity:0.992" fill="#000000" d="M 100.5,-0.5 C 203.833,-0.5 307.167,-0.5 410.5,-0.5C 466.5,10.8333 500.167,44.5 511.5,100.5C 511.5,203.833 511.5,307.167 511.5,410.5C 500.167,466.5 466.5,500.167 410.5,511.5C 307.167,511.5 203.833,511.5 100.5,511.5C 44.5,500.167 10.8333,466.5 -0.5,410.5C -0.5,307.167 -0.5,203.833 -0.5,100.5C 10.8333,44.5 44.5,10.8333 100.5,-0.5 Z"/></g>
<g><path style="opacity:1" fill="#fefefe" d="M 112.5,14.5 C 146.5,14.5 180.5,14.5 214.5,14.5C 214.5,81.1667 214.5,147.833 214.5,214.5C 147.833,214.5 81.1667,214.5 14.5,214.5C 14.5,180.5 14.5,146.5 14.5,112.5C 17.5134,70.6349 37.8467,40.4682 75.5,22C 87.3597,17.0645 99.693,14.5645 112.5,14.5 Z"/></g>
<g><path style="opacity:1" fill="#87111e" d="M 281.5,223.5 C 280.501,154.002 280.167,84.3353 280.5,14.5C 263.833,14.5 247.167,14.5 230.5,14.5C 230.833,84.3353 230.499,154.002 229.5,223.5C 229.5,153.5 229.5,83.5 229.5,13.5C 246.833,13.5 264.167,13.5 281.5,13.5C 281.5,83.5 281.5,153.5 281.5,223.5 Z"/></g>
<g><path style="opacity:1" fill="#ec1e33" d="M 281.5,223.5 C 281.738,226.148 283.072,227.982 285.5,229C 337.5,229.667 389.5,229.667 441.5,229C 443.919,227.491 444.919,225.325 444.5,222.5C 450.833,222.5 457.167,222.5 463.5,222.5C 464.018,226.024 466.018,228.357 469.5,229.5C 478.318,230.493 487.318,230.827 496.5,230.5C 496.5,247.167 496.5,263.833 496.5,280.5C 426.665,280.167 356.998,280.501 287.5,281.5C 283.833,281.833 281.833,283.833 281.5,287.5C 280.501,356.998 280.167,426.665 280.5,496.5C 263.833,496.5 247.167,496.5 230.5,496.5C 230.833,426.665 230.499,356.998 229.5,287.5C 229.167,283.833 227.167,281.833 223.5,281.5C 154.002,280.501 84.3353,280.167 14.5,280.5C 14.5,263.833 14.5,247.167 14.5,230.5C 84.3353,230.833 154.002,230.499 223.5,229.5C 227.167,229.167 229.167,227.167 229.5,223.5C 230.499,154.002 230.833,84.3353 230.5,14.5C 247.167,14.5 263.833,14.5 280.5,14.5C 280.167,84.3353 280.501,154.002 281.5,223.5 Z"/></g>
<g><path style="opacity:1" fill="#fefefe" d="M 398.5,14.5 C 440.448,17.5443 470.615,37.8776 489,75.5C 492.094,83.6458 494.427,91.9791 496,100.5C 496.5,138.832 496.667,177.165 496.5,215.5C 486.828,215.334 477.161,215.5 467.5,216C 465.266,217.638 463.933,219.805 463.5,222.5C 457.167,222.5 450.833,222.5 444.5,222.5C 444.68,218.344 442.68,216.01 438.5,215.5C 391.336,214.501 344.003,214.168 296.5,214.5C 296.5,147.833 296.5,81.1667 296.5,14.5C 330.5,14.5 364.5,14.5 398.5,14.5 Z"/></g>
<g><path style="opacity:1" fill="#ed2838" d="M 112.5,87.5 C 116.025,87.3459 118.859,88.6792 121,91.5C 121.499,97.4908 121.666,103.491 121.5,109.5C 127.925,109.13 134.258,109.63 140.5,111C 145.448,114.574 145.781,118.574 141.5,123C 135.258,124.37 128.925,124.87 122.5,124.5C 122.666,129.844 122.499,135.177 122,140.5C 118.274,147.565 113.608,148.232 108,142.5C 107.501,136.509 107.334,130.509 107.5,124.5C 101.491,124.666 95.4908,124.499 89.5,124C 84.6357,119.965 84.3024,115.632 88.5,111C 94.7416,109.63 101.075,109.13 107.5,109.5C 107.334,103.824 107.501,98.1569 108,92.5C 109.025,90.313 110.525,88.6464 112.5,87.5 Z"/></g>
<g><path style="opacity:1" fill="#ed2637" d="M 393.5,87.5 C 397.794,87.1975 400.961,88.8642 403,92.5C 403.499,98.1569 403.666,103.824 403.5,109.5C 409.925,109.13 416.258,109.63 422.5,111C 426.698,115.632 426.364,119.965 421.5,124C 415.509,124.499 409.509,124.666 403.5,124.5C 403.666,130.509 403.499,136.509 403,142.5C 397.392,148.232 392.726,147.565 389,140.5C 388.501,135.177 388.334,129.844 388.5,124.5C 382.824,124.666 377.157,124.499 371.5,124C 365.585,120.031 365.251,115.698 370.5,111C 376.748,110.812 382.915,110.312 389,109.5C 389.333,103.5 389.667,97.5 390,91.5C 391.376,90.2949 392.542,88.9616 393.5,87.5 Z"/></g>
<g><path style="opacity:1" fill="#b3b3b3" d="M 112.5,14.5 C 146.663,13.5017 180.996,13.1683 215.5,13.5C 215.5,80.8333 215.5,148.167 215.5,215.5C 148.167,215.5 80.8333,215.5 13.5,215.5C 13.1683,180.996 13.5017,146.663 14.5,112.5C 14.5,146.5 14.5,180.5 14.5,214.5C 81.1667,214.5 147.833,214.5 214.5,214.5C 214.5,147.833 214.5,81.1667 214.5,14.5C 180.5,14.5 146.5,14.5 112.5,14.5 Z"/></g>
<g><path style="opacity:1" fill="#bbbbbb" d="M 398.5,14.5 C 364.5,14.5 330.5,14.5 296.5,14.5C 296.5,81.1667 296.5,147.833 296.5,214.5C 344.003,214.168 391.336,214.501 438.5,215.5C 390.833,215.5 343.167,215.5 295.5,215.5C 295.5,148.167 295.5,80.8333 295.5,13.5C 330.004,13.1683 364.337,13.5017 398.5,14.5 Z"/></g>
<g><path style="opacity:1" fill="#87111e" d="M 223.5,229.5 C 154.002,230.499 84.3353,230.833 14.5,230.5C 14.5,247.167 14.5,263.833 14.5,280.5C 84.3353,280.167 154.002,280.501 223.5,281.5C 153.5,281.5 83.5,281.5 13.5,281.5C 13.5,264.167 13.5,246.833 13.5,229.5C 83.5,229.5 153.5,229.5 223.5,229.5 Z"/></g>
<g><path style="opacity:1" fill="#85111d" d="M 469.5,229.5 C 478.833,229.5 488.167,229.5 497.5,229.5C 497.5,246.833 497.5,264.167 497.5,281.5C 427.5,281.5 357.5,281.5 287.5,281.5C 356.998,280.501 426.665,280.167 496.5,280.5C 496.5,263.833 496.5,247.167 496.5,230.5C 487.318,230.827 478.318,230.493 469.5,229.5 Z"/></g>
<g><path style="opacity:1" fill="#87111e" d="M 229.5,287.5 C 230.499,356.998 230.833,426.665 230.5,496.5C 247.167,496.5 263.833,496.5 280.5,496.5C 280.167,426.665 280.501,356.998 281.5,287.5C 281.5,357.5 281.5,427.5 281.5,497.5C 264.167,497.5 246.833,497.5 229.5,497.5C 229.5,427.5 229.5,357.5 229.5,287.5 Z"/></g>
<g><path style="opacity:1" fill="#fefefe" d="M 112.5,496.5 C 74.1469,494.304 45.3136,476.637 26,443.5C 19.199,429.963 15.3657,415.63 14.5,400.5C 14.5,365.833 14.5,331.167 14.5,296.5C 81.1667,296.5 147.833,296.5 214.5,296.5C 214.5,363.167 214.5,429.833 214.5,496.5C 180.5,496.5 146.5,496.5 112.5,496.5 Z"/></g>
<g><path style="opacity:1" fill="#b3b3b3" d="M 112.5,496.5 C 146.5,496.5 180.5,496.5 214.5,496.5C 214.5,429.833 214.5,363.167 214.5,296.5C 147.833,296.5 81.1667,296.5 14.5,296.5C 14.5,331.167 14.5,365.833 14.5,400.5C 13.5016,365.671 13.1683,330.671 13.5,295.5C 80.8333,295.5 148.167,295.5 215.5,295.5C 215.5,362.833 215.5,430.167 215.5,497.5C 180.996,497.832 146.663,497.498 112.5,496.5 Z"/></g>
<g><path style="opacity:1" fill="#b1b1b1" d="M 496.5,400.5 C 496.5,365.833 496.5,331.167 496.5,296.5C 429.833,296.5 363.167,296.5 296.5,296.5C 296.5,363.167 296.5,429.833 296.5,496.5C 330.5,496.5 364.5,496.5 398.5,496.5C 364.337,497.498 330.004,497.832 295.5,497.5C 295.5,430.167 295.5,362.833 295.5,295.5C 362.833,295.5 430.167,295.5 497.5,295.5C 497.832,330.671 497.498,365.671 496.5,400.5 Z"/></g>
<g><path style="opacity:1" fill="#fefefe" d="M 496.5,400.5 C 492.953,442.125 472.286,471.625 434.5,489C 422.962,493.718 410.962,496.218 398.5,496.5C 364.5,496.5 330.5,496.5 296.5,496.5C 296.5,429.833 296.5,363.167 296.5,296.5C 363.167,296.5 429.833,296.5 496.5,296.5C 496.5,331.167 496.5,365.833 496.5,400.5 Z"/></g>
<g><path style="opacity:1" fill="#ee2a39" d="M 111.5,364.5 C 116.772,363.549 120.272,365.549 122,370.5C 122.499,375.823 122.666,381.156 122.5,386.5C 127.844,386.334 133.177,386.501 138.5,387C 145.558,390.25 146.225,394.583 140.5,400C 134.593,401.361 128.593,401.861 122.5,401.5C 122.861,407.593 122.361,413.593 121,419.5C 116.162,425.036 111.829,424.703 108,418.5C 107.501,412.843 107.334,407.176 107.5,401.5C 101.075,401.87 94.7416,401.37 88.5,400C 84.2305,395.291 84.5639,390.958 89.5,387C 95.4908,386.501 101.491,386.334 107.5,386.5C 107.334,380.491 107.501,374.491 108,368.5C 109.376,367.295 110.542,365.962 111.5,364.5 Z"/></g>
<g><path style="opacity:1" fill="#ee2a39" d="M 393.5,364.5 C 397.594,363.705 400.761,365.038 403,368.5C 403.499,374.491 403.666,380.491 403.5,386.5C 409.509,386.334 415.509,386.501 421.5,387C 426.436,390.958 426.769,395.291 422.5,400C 416.258,401.37 409.925,401.87 403.5,401.5C 403.666,407.176 403.499,412.843 403,418.5C 397.261,425.734 392.594,425.068 389,416.5C 388.501,411.511 388.334,406.511 388.5,401.5C 383.156,401.666 377.823,401.499 372.5,401C 365.067,396.663 364.734,391.997 371.5,387C 377.157,386.501 382.824,386.334 388.5,386.5C 388.334,381.156 388.501,375.823 389,370.5C 389.804,367.854 391.304,365.854 393.5,364.5 Z"/></g>
</svg>
